<svg width="36" height="36" viewBox="0 0 50 50" fill="none" xmlns="http://www.w3.org/2000/svg">
<path d="M39.5556 8.44444H35.1111V4H12.8889V8.44444H8.44444C6 8.44444 4 10.4444 4 12.8889V15.1111C4
20.7778 8.26667 25.4 13.7556 26.0889C15.1556 29.4222 18.1556 31.9333
21.7778 32.6667V39.5556H12.8889V44H35.1111V39.5556H26.2222V32.6667C29.8444 31.9333 32.8444
29.4222 34.2444 26.0889C39.7333 25.4 44 20.7778 44 15.1111V12.8889C44 10.4444 42 8.44444 39.5556
8.44444ZM8.44444 15.1111V12.8889H12.8889V21.3778C10.3111 20.4444 8.44444 18 8.44444 15.1111ZM24 28.4444C20.3333 28.4444 17.3333 25.4444 17.3333 21.7778V8.44444H30.6667V21.7778C30.6667 25.4444 27.6667 28.4444 24 28.4444ZM39.5556 15.1111C39.5556 18 37.6889 20.4444 35.1111 21.3778V12.8889H39.5556V15.1111Z" fill="#DADCC6"/>
</svg>
